<svg width="205" height="205" viewBox="0 0 205 205" fill="none" xmlns="http://www.w3.org/2000/svg">
<path fill-rule="evenodd" clip-rule="evenodd" d="M102.219 198.128C155.261 198.128 198.26 155.126 198.26 102.08C198.26 49.0334 155.261 6.03148 102.219 6.03148C49.1775 6.03148 6.17796 49.0334 6.17796 102.08C6.17796 155.126 49.1775 198.128 102.219 198.128ZM102.219 204.16C158.592 204.16 204.292 158.457 204.292 102.08C204.292 45.7028 158.592 0 102.219 0C45.846 0 0.146484 45.7028 0.146484 102.08C0.146484 158.457 45.846 204.16 102.219 204.16Z" fill="#86714D"/>
<path d="M75.1671 61.6752C73.719 62.6432 72.3479 63.7216 71.0659 64.9008C65.679 69.7738 60.6857 75.0649 56.1327 80.7247C49.2914 89.1516 45.0426 99.3826 43.9016 110.177C42.7606 120.971 44.7765 131.864 49.7047 141.535C64.624 169.94 95.8708 168.574 98.8971 168.371C99.3308 168.402 100.336 168.462 101.793 168.462C111.844 168.46 143.27 165.653 154.755 131.695C168.481 91.1069 130.792 70.8263 130.41 70.6269C130.119 70.4745 129.799 70.3838 129.472 70.3605C129.144 70.3372 128.815 70.3819 128.505 70.4916C128.195 70.6014 127.912 70.7739 127.672 70.9984C127.432 71.2229 127.241 71.4945 127.111 71.7962C122.016 83.6006 124.175 91.5009 127.43 96.3679C115.598 91.6665 114.085 80.0253 114.409 72.7183C114.658 68.8469 114.286 64.9606 113.308 61.2066C106.143 35.5961 79.6785 34.7929 79.4127 34.7871H79.3661C78.9298 34.7872 78.5019 34.9069 78.1289 35.133C77.7558 35.3592 77.4518 35.6833 77.25 36.07C77.0481 36.4568 76.9561 36.8915 76.9839 37.3269C77.0117 37.7623 77.1582 38.1817 77.4076 38.5397C81.0168 43.718 82.4437 48.4556 81.651 52.622C80.7724 56.3786 78.4409 59.634 75.1671 61.6752ZM83.9405 40.1355C89.7819 41.086 95.2254 43.7006 99.6186 47.6661C104.012 51.6315 107.169 56.7796 108.71 62.4935C109.549 65.7607 109.862 69.1405 109.638 72.5061C109.347 79.06 110.328 100.63 135.194 103.003C135.751 103.054 136.309 102.908 136.769 102.59C137.23 102.272 137.564 101.802 137.714 101.263C137.863 100.724 137.819 100.149 137.588 99.6391C137.357 99.1293 136.955 98.7167 136.451 98.4733C135.947 98.2285 124.751 92.5536 130.503 76.2167C138.101 81.0511 160.897 98.633 150.232 130.165C137.784 166.973 100.709 163.755 99.1419 163.6C99.0627 163.593 98.9834 163.589 98.9041 163.589C98.8272 163.589 98.7526 163.592 98.678 163.599C97.4353 163.721 68.028 166.146 53.9341 139.316C49.4352 130.464 47.6016 120.497 48.6557 110.624C49.7097 100.75 53.6062 91.3952 59.8724 83.6928C64.2681 78.2319 69.0883 73.1267 74.2881 68.425C75.3878 67.4119 76.5641 66.4851 77.8063 65.6528C79.9597 64.293 81.8225 62.5204 83.2875 60.4372C84.7525 58.354 85.7906 56.0013 86.342 53.515C87.074 48.912 86.2276 44.1966 83.9405 40.1355Z" fill="#86714D"/>
<path d="M84.3085 119.333C84.0093 119.24 83.6947 119.206 83.3826 119.234C83.0704 119.263 82.7669 119.352 82.4893 119.497C82.2117 119.643 81.9655 119.842 81.7648 120.082C81.564 120.323 81.4127 120.601 81.3194 120.9C80.8585 122.299 80.1074 123.584 79.1154 124.673C78.1233 125.761 76.9126 126.627 75.5625 127.215C75.5186 127.236 75.4756 127.253 75.4329 127.276C75.0806 127.439 74.7349 127.588 74.4087 127.71V111.293C74.4087 110.66 74.1572 110.053 73.7094 109.605C73.2617 109.157 72.6544 108.906 72.0213 108.906C71.3881 108.906 70.7808 109.157 70.3331 109.605C69.8853 110.053 69.6338 110.66 69.6338 111.293V140.361C69.6338 140.994 69.8853 141.602 70.3331 142.049C70.7808 142.497 71.3881 142.749 72.0213 142.749C72.6544 142.749 73.2617 142.497 73.7094 142.049C74.1572 141.602 74.4087 140.994 74.4087 140.361V132.713C74.9174 132.572 75.4881 132.392 76.1104 132.158C78.3861 134.401 79.7916 137.38 80.0768 140.563C80.126 141.16 80.3978 141.717 80.8383 142.123C81.2787 142.529 81.8558 142.755 82.4549 142.756C82.5202 142.756 82.5855 142.753 82.6507 142.748C82.9633 142.722 83.2679 142.635 83.547 142.492C83.8261 142.349 84.0743 142.153 84.2774 141.914C84.4804 141.675 84.6344 141.398 84.7306 141.099C84.8267 140.801 84.8631 140.486 84.8376 140.174C84.511 136.351 82.9735 132.732 80.4487 129.844C83.0321 127.999 84.9385 125.358 85.8751 122.325C85.9688 122.025 86.0026 121.711 85.9746 121.398C85.9465 121.086 85.8572 120.782 85.7117 120.504C85.5662 120.227 85.3674 119.98 85.1266 119.779C84.8859 119.578 84.6078 119.427 84.3085 119.333Z" fill="#86714D"/>
<path d="M95.3437 142.756C97.1858 142.764 98.9639 142.08 100.326 140.84C101.689 139.6 102.537 137.894 102.702 136.06C102.761 135.429 102.567 134.801 102.163 134.313C101.759 133.825 101.177 133.518 100.546 133.459C99.9156 133.4 99.2873 133.594 98.7996 133.998C98.3118 134.402 98.0046 134.984 97.9456 135.614C97.882 136.283 97.5634 136.902 97.0559 137.342C96.5484 137.782 95.8909 138.01 95.2199 137.978C94.5489 137.946 93.916 137.657 93.4523 137.171C92.9887 136.685 92.73 136.039 92.73 135.367V130.176C92.73 129.516 92.9798 128.88 93.4294 128.396C93.879 127.912 94.495 127.617 95.1536 127.568C95.8123 127.52 96.4648 127.723 96.9801 128.136C97.4954 128.549 97.8354 129.142 97.9316 129.795C97.9761 130.106 98.0814 130.405 98.2416 130.675C98.4018 130.945 98.6136 131.18 98.8651 131.368C99.1165 131.556 99.4025 131.693 99.7067 131.77C100.011 131.847 100.327 131.864 100.638 131.819C100.949 131.773 101.247 131.667 101.517 131.506C101.787 131.346 102.022 131.133 102.209 130.881C102.397 130.629 102.532 130.343 102.609 130.039C102.685 129.734 102.701 129.418 102.655 129.107C102.385 127.26 101.426 125.583 99.9702 124.414C98.5145 123.245 96.6701 122.671 94.8081 122.806C92.946 122.942 91.2042 123.777 89.9329 125.144C88.6615 126.511 87.9549 128.309 87.9551 130.176V135.367C87.9574 137.326 88.7366 139.204 90.1218 140.589C91.5069 141.974 93.3848 142.753 95.3437 142.756Z" fill="#86714D"/>
<path d="M111.785 129.678C110.051 129.679 108.386 130.364 107.153 131.584C106.233 132.498 105.606 133.665 105.352 134.936C105.097 136.207 105.227 137.525 105.723 138.723C106.22 139.921 107.061 140.943 108.141 141.661C109.22 142.379 110.489 142.76 111.785 142.755H113.947C115.68 142.753 117.342 142.064 118.568 140.838C119.793 139.612 120.482 137.95 120.484 136.217V127.469C120.483 126.229 119.991 125.041 119.114 124.164C118.238 123.287 117.049 122.794 115.81 122.793H107.612C106.979 122.793 106.372 123.045 105.924 123.492C105.476 123.94 105.225 124.547 105.225 125.18C105.225 125.814 105.476 126.421 105.924 126.869C106.372 127.316 106.979 127.568 107.612 127.568L115.709 127.469V129.678H111.785ZM115.709 136.217C115.709 136.684 115.523 137.132 115.193 137.463C114.862 137.794 114.414 137.98 113.947 137.98H111.785C111.552 137.984 111.319 137.942 111.102 137.855C110.885 137.768 110.688 137.638 110.522 137.474C110.355 137.31 110.223 137.114 110.134 136.898C110.044 136.682 109.999 136.45 110 136.217C110 135.983 110.047 135.752 110.137 135.537C110.228 135.322 110.36 135.127 110.526 134.963C110.692 134.799 110.888 134.67 111.105 134.582C111.321 134.495 111.552 134.451 111.785 134.453H115.709V136.217Z" fill="#86714D"/>
<path d="M130.897 142.755H134.625C135.258 142.755 135.866 142.504 136.313 142.056C136.761 141.608 137.013 141.001 137.013 140.368C137.013 139.735 136.761 139.128 136.313 138.68C135.866 138.232 135.258 137.981 134.625 137.981H130.897C130.267 137.98 129.662 137.729 129.217 137.283C128.771 136.837 128.52 136.233 128.519 135.602V111.866C128.519 111.233 128.268 110.626 127.82 110.178C127.372 109.731 126.765 109.479 126.132 109.479C125.498 109.479 124.891 109.731 124.443 110.178C123.996 110.626 123.744 111.233 123.744 111.866V135.602C123.746 137.499 124.501 139.317 125.842 140.658C127.183 141.999 129.001 142.753 130.897 142.755Z" fill="#86714D"/>
</svg>
