<?xml version="1.0" encoding="UTF-8"?> <!-- Generator: Adobe Illustrator 20.1.0, SVG Export Plug-In . SVG Version: 6.00 Build 0) --> <svg xmlns="http://www.w3.org/2000/svg" xmlns:xlink="http://www.w3.org/1999/xlink" version="1.1" id="Calque_1" x="0px" y="0px" viewBox="0 0 758.1 204.5" style="enable-background:new 0 0 758.1 204.5;" xml:space="preserve"> <style type="text/css"> .st0{opacity:0.5;fill:#8D734A;} .st1{fill:#8D734A;} </style> <g> <g> <polygon class="st0" points="231.8,33.5 258.7,71.7 260.2,71.7 286.9,33.5 286.9,93.4 296.3,93.4 296.3,15.5 288.1,15.5 259.5,57.7 230.8,15.5 222.6,15.5 222.6,93.4 231.8,93.4 "></polygon> <rect x="431.1" y="15.5" class="st0" width="9.4" height="77.9"></rect> <path class="st0" d="M505.2,85.6c-10,0-17-2.9-25.2-10.5l-1.5-1.4l-6.2,7.1l1.4,1.3c9.6,8.5,19.1,12.3,31.1,12.3 c15.6,0,26.5-9.1,26.5-22.3c0-11.8-8-18.7-25.9-22.3c-18.5-3.8-20-8.7-20-14.4c0-6.9,6.8-12,16.1-12c8.1,0,14.5,2.4,20.8,7.9 l1.5,1.3l6-7.4l-1.5-1.2c-8.3-6.7-16-9.4-26.6-9.4c-14.7,0-25.7,9.2-25.7,21.6c0,12.2,7.9,19,26.5,22.7c17.9,3.6,19.3,8.4,19.3,14 C521.9,80.3,515,85.6,505.2,85.6z"></path> <path class="st0" d="M603,94.7c21.8,0,38.8-17.2,39.2-39.4l0.1-0.1l-0.1-1.7c-0.4-22.4-17-39.2-39-39.2c-22,0-39.3,17.7-39.3,40.2 v0.2C563.9,77.5,580.7,94.7,603,94.7z M573.6,54.2c0-17.7,12.6-31.1,29.4-31.1c16.6,0,29.6,13.8,29.6,31.3v0.2 c0,17.7-12.6,31.1-29.4,31.1C586.6,85.8,573.6,72,573.6,54.2z"></path> <polygon class="st0" points="690.3,31.3 739.5,93.4 746.5,93.4 746.5,15.5 737.3,15.5 737.3,76.2 689.2,15.5 681.1,15.5 681.1,93.4 690.3,93.4 "></polygon> <polygon class="st0" points="360.8,15.3 324.5,93.6 334.5,93.6 364.5,28 378.7,59.2 356,59.2 351.9,68.1 382.8,68.1 394.4,93.6 404.8,93.6 368.5,15.3 "></polygon> <g> <polygon class="st1" points="545,116.3 511,189.8 520.4,189.8 548.5,128.3 561.8,157.5 540.5,157.5 536.7,165.8 565.6,165.8 576.5,189.8 586.2,189.8 552.3,116.3 "></polygon> <rect x="310.4" y="116.6" class="st1" width="8.8" height="72.9"></rect> <polygon class="st1" points="355.5,116.6 346.7,116.6 346.7,189.5 396.2,189.5 396.2,181.1 355.5,181.1 "></polygon> <polygon class="st1" points="422.7,116.6 413.9,116.6 413.9,189.5 463.4,189.5 463.4,181.1 422.7,181.1 "></polygon> <rect x="481.8" y="116.6" class="st1" width="8.8" height="72.9"></rect> <path class="st1" d="M711.1,116.6h-24.9v72.9h24.9c22.4,0,38.6-15.3,38.6-36.7C749.7,131.8,733.5,116.6,711.1,116.6z M740.7,153.3c0,16.4-12.2,27.8-29.6,27.8H695V125h16.1C728.2,125,740.7,136.8,740.7,153.3z"></path> <path class="st1" d="M643.4,159.4c11.8-2.6,18.8-10.3,18.8-21.3c0-5.3-2.1-10.5-5.8-14.2c-4.7-4.7-12.1-7.4-20.8-7.4h-30.9v72.9 h8.8V125h21.8c11.3,0,18.1,5,18.1,13.5c0,8.5-7.2,13.9-18.2,14h-15.5l-3.8,8.3h17.5l22.1,28.7h11.2L643.4,159.4z"></path> <path class="st1" d="M259.9,152.5l-3.9,8.3h26.2c-0.4,3.9-7.2,19.5-26.2,19.5c-15.5,0-27.7-12.1-27.7-27.6 c0-15.2,12.4-27.7,27.7-27.7c8,0,15.6,3.4,20.7,9.3l0.9,1.1l1.3-0.6c1.9-1,3.3-1.7,4.8-2.4l2-1.1l-1.5-1.8 c-7-8.3-17.6-13.3-28.3-13.3c-20.1,0-36.5,16.4-36.5,36.5c0,20.1,16.2,36.5,36.3,36.6c20.2,0,36.6-16.5,36.5-36.8H259.9z"></path> </g> </g> <g> <path class="st1" d="M102.9,7.8c-52.1,0-94.5,42.4-94.5,94.5c0,52.1,42.4,94.5,94.5,94.5c52.1,0,94.5-42.4,94.5-94.5 C197.3,50.1,154.9,7.8,102.9,7.8 M191.9,102.2c0,49.1-39.9,89.1-89,89.1c-49.1,0-89.1-39.9-89.1-89.1c0-49.1,40-89,89.1-89 C152,13.2,191.9,53.1,191.9,102.2"></path> <path class="st1" d="M125.4,127.1h-21.1l-3.5,7.6h15.6c-1.2,2.9-4.9,8.6-13.5,8.6c-8.3,0-14.8-6.5-14.8-14.8 c0-8.1,6.6-14.8,14.8-14.8c4.3,0,8.3,1.8,11,4.9l1.3,1.4l7.2-3.7l-1.9-2.3c-4.3-5.2-10.9-8.3-17.5-8.3 c-12.5,0-22.7,10.2-22.7,22.7c0,12.4,10.1,22.6,22.5,22.7c6.1,0,11.7-2.4,16-6.7c4.3-4.3,6.6-10,6.6-16.1L125.4,127.1z"></path> <path class="st1" d="M172.3,82.3c-4-4-9.5-5.8-14.8-5.4c-5.5,0.5-9.4,3-12.3,8.1c-2.2,3.8-2.4,9-0.2,12.8c1.3,2.3,4.7,6,12.1,5.5 l0.2,0v-4.7l-0.5,0c-3.8,0.2-6.4-0.9-7.8-3.2c-1.5-2.6-1-6.6,0.2-8.5c2.2-3.5,5.1-4.9,8.7-5.3c3.9-0.4,8,1.1,11,4 c6,5.9,6.5,15.8,0.2,22.3c-3.9,4-8.8,5.3-13,5.8c-5.7,0.6-12.6,2.3-16.6,4.8c-1.6-8.5-5.5-16-10.9-21.7c3.7-2.8,7-6.5,7-6.5 l-7.6-7.7c13.3-11.3,1.8-30.6,1.8-30.6l-8.7,7.4c-0.9-10.7-18.5-24.5-18.5-24.5S85.3,48.5,84.4,59.3l-8.7-7.4 c0,0-11.5,19.3,1.8,30.6L70,90.2c0,0,3.3,3.7,7,6.6c0,0,0,0,0,0c-5.4,5.8-9.3,13.3-10.9,21.7c-4.1-2.5-10.9-4.2-16.6-4.8 c-4.1-0.5-9.1-1.8-13-5.8c-6.3-6.6-5.8-16.4,0.2-22.3c3-3,7.1-4.5,10.9-4c3.6,0.4,6.6,1.8,8.8,5.3c1.2,1.9,1.8,5.9,0.2,8.5 c-1.4,2.3-4.1,3.5-7.8,3.2l-0.5,0v4.7l0.2,0c7.5,0.4,10.8-3.3,12.1-5.5c2.3-3.8,2-8.9-0.2-12.8c-2.9-5.1-6.8-7.6-12.3-8.1 c-5.3-0.5-10.8,1.4-14.8,5.4c-7.8,7.7-8.5,20.8-0.3,29.2c4.1,4.2,8,5.4,13.8,6.7c-0.9,0.5-1.7,1-2.5,1.6c-3.4,2.6-5.5,6.2-6,10.2 c-0.4,3.7,0.8,7.5,3.3,10.3c2.3,2.5,5.4,4,8.7,4.2c3.1,0.1,6.2-1,8.4-3c1.9-1.8,2.9-4.1,2.7-6.6c0-1.1-0.4-2.1-0.9-3.1h-4.1 c0.1,0.2,0.7,0.9,0.9,1.6c0.2,0.5,0.3,1,0.3,1.6c0,1.6-0.5,2.6-1.7,3.6c-0.7,0.7-1.6,1.1-2.9,1.5c-0.1,0-0.7,0.1-1.1,0.2 c-0.5,0.1-1.1,0.1-1.3,0.1c-2.7-0.1-4.5-1.7-5.6-2.8c-1.7-1.9-2.4-4.5-2.3-7c0.1-2.8,1.3-5.7,4-7.6c2.8-2,5.8-3.1,9.8-2.6 c0.5,0,1,0.2,1.4,0.3c3.7,1,6,2.6,7.2,5.3c0,0.6-0.1,1.3-0.1,1.9c0,23.4,16.8,42.4,37.6,42.4c20.8,0,37.6-19,37.6-42.4 c0-0.7-0.1-1.3-0.1-1.9c1.2-2.6,3.5-4.3,7.2-5.2c0.4-0.1,0.9-0.2,1.4-0.3c4-0.4,7,0.6,9.8,2.6c2.7,1.9,3.9,4.8,4,7.6 c0.1,2.5-0.6,5.1-2.3,7c-1,1.2-2.9,2.7-5.6,2.8c-0.2,0-0.7,0-1.3-0.1c-0.5-0.1-0.9-0.2-1.1-0.2c-1.3-0.3-2.1-0.8-2.9-1.5 c-1.1-1-1.7-2.1-1.7-3.6c0-0.5,0.1-1.1,0.3-1.6c0.2-0.7,0.8-1.4,0.9-1.6h-4.1c-0.5,1-0.9,2.1-0.9,3.1c-0.1,2.4,0.9,4.8,2.7,6.6 c2.2,2,5.3,3.2,8.4,3c3.4-0.2,6.5-1.7,8.7-4.2c2.5-2.8,3.8-6.6,3.4-10.3c-0.4-4-2.6-7.6-6-10.2c-0.8-0.6-1.7-1.1-2.5-1.6 c5.9-1.2,9.7-2.4,13.9-6.7C180.7,103.1,180.1,90,172.3,82.3z M81.3,83.6l11-2.7l-11.9-2c-7.8-6.4-6.4-14.4-3.6-20.2 C83,63.8,93.6,71,93.7,71.1l3.4,2.3l-2.7-3.2c-1.4-1.6-5.8-7-5.5-10.6c0.4-6.9,9.6-15.5,14-19.2c4.3,3.7,13.5,12.3,14,19.2 c0.2,3.6-4.2,9.1-5.5,10.6l-2.7,3.2l3.4-2.3c0.1-0.1,10.6-7.2,16.8-12.4c2.8,5.8,4.2,13.9-3.6,20.2l-11.9,2l10.9,2.7l5.9,6.3 c-1.5,1.5-7.4,7-13.4,7c-1.2,0-2.3-0.2-3.4-0.6c-4.1-1.6-7.5-5.1-10-10.2l-0.6-1.3l-0.6,1.3c-2.5,5.2-5.9,8.6-10,10.2 c-1.1,0.4-2.2,0.6-3.4,0.6c-6,0-11.9-5.5-13.4-7L81.3,83.6z M80.2,98.9c-0.5-0.3-1.1-0.6-1.6-1C79.1,98.2,79.7,98.6,80.2,98.9z M102.9,165.3c-18.2,0-33-17-33-37.8c0-11.2,4.3-21.3,11.1-28.2c1.1,0.5,2.3,1,3.8,1.4c0.2,0,0.3,0.1,0.4,0.1 c1.1,0.2,2.3,0.4,3.6,0.5c1.8,0,3.5-0.3,5.2-1c3.4-1.3,6.3-3.6,8.8-6.7c2.5,3.1,5.4,5.3,8.8,6.7c1.6,0.6,3.4,1,5.2,1 c0.7,0,1.3-0.1,1.9-0.1c0.7-0.1,1.4-0.2,2.1-0.4c0,0,0,0,0,0c1.4-0.4,2.7-0.9,3.8-1.4c6.8,6.9,11.2,17,11.2,28.3 C135.8,148.3,121,165.3,102.9,165.3z"></path> </g> </g> </svg> 