<svg width="205" height="205" viewBox="0 0 205 205" fill="none" xmlns="http://www.w3.org/2000/svg">
<path fill-rule="evenodd" clip-rule="evenodd" d="M102.219 198.179C155.261 198.179 198.26 155.177 198.26 102.131C198.26 49.0842 155.261 6.08226 102.219 6.08226C49.1775 6.08226 6.17796 49.0842 6.17796 102.131C6.17796 155.177 49.1775 198.179 102.219 198.179ZM102.219 204.211C158.592 204.211 204.292 158.508 204.292 102.131C204.292 45.7535 158.592 0.0507812 102.219 0.0507812C45.846 0.0507812 0.146484 45.7535 0.146484 102.131C0.146484 158.508 45.846 204.211 102.219 204.211Z" fill="#86714D"/>
<path fill-rule="evenodd" clip-rule="evenodd" d="M123.76 95.0851C124.457 96.3488 126.047 96.8077 127.311 96.11L132.478 93.2575C133.311 92.7975 133.828 91.9211 133.828 90.9694V53.4097C133.828 51.9663 132.658 50.7961 131.215 50.7961C129.771 50.7961 128.601 51.9663 128.601 53.4097V89.4268L124.785 91.5338C123.521 92.2314 123.062 93.8214 123.76 95.0851Z" fill="#86714D"/>
<path fill-rule="evenodd" clip-rule="evenodd" d="M101.594 108.907C102.38 109.34 103.334 109.34 104.12 108.907L109.025 106.199C110.289 105.502 110.748 103.912 110.051 102.648C109.353 101.384 107.764 100.925 106.5 101.623L102.857 103.633L77.116 89.4257V53.4089C77.116 51.9654 75.9458 50.7952 74.5023 50.7952C73.0588 50.7952 71.8887 51.9654 71.8887 53.4089V90.9685C71.8887 91.9203 72.4061 92.7968 73.2394 93.2567L101.594 108.907Z" fill="#86714D"/>
<mask id="mask0_274_795" style="mask-type:luminance" maskUnits="userSpaceOnUse" x="44" y="32" width="122" height="134">
<path d="M44.3721 32.2199H165.002V165.368H44.3721V32.2199Z" fill="white"/>
<path fill-rule="evenodd" clip-rule="evenodd" d="M165.002 32.2199H44.3721V165.368H165.002V32.2199ZM159.774 160.14H49.5994V37.4472H159.774V160.14Z" fill="white"/>
</mask>
<g mask="url(#mask0_274_795)">
<path fill-rule="evenodd" clip-rule="evenodd" d="M101.593 71.3475C102.379 71.7813 103.333 71.7813 104.119 71.3475L132.476 55.6977C133.309 55.2378 133.826 54.3612 133.826 53.4094C133.826 52.4576 133.309 51.581 132.476 51.1211L118.322 43.3099C117.058 42.6124 115.468 43.0715 114.77 44.3353C114.073 45.5991 114.532 47.189 115.796 47.8865L125.804 53.4094L102.856 66.074L79.9085 53.4094L102.856 40.7449L108.402 43.8059C109.666 44.5034 111.256 44.0444 111.953 42.7806C112.651 41.5168 112.192 39.9269 110.928 39.2294L104.119 35.4714C103.333 35.0375 102.379 35.0375 101.593 35.4713L73.2365 51.1211C72.4032 51.581 71.8857 52.4576 71.8857 53.4094C71.8857 54.3612 72.4032 55.2378 73.2365 55.6977L101.593 71.3475Z" fill="#86714D"/>
</g>
<path fill-rule="evenodd" clip-rule="evenodd" d="M102.855 109.233C104.298 109.233 105.468 108.063 105.468 106.619V69.0602C105.468 67.6167 104.298 66.4465 102.855 66.4465C101.411 66.4465 100.241 67.6167 100.241 69.0602V106.619C100.241 108.063 101.411 109.233 102.855 109.233Z" fill="#86714D"/>
<path fill-rule="evenodd" clip-rule="evenodd" d="M102.855 118.115C104.298 118.115 105.468 116.945 105.468 115.502V106.618C105.468 105.175 104.298 104.005 102.855 104.005C101.411 104.005 100.241 105.175 100.241 106.618V115.502C100.241 116.945 101.411 118.115 102.855 118.115Z" fill="#86714D"/>
<mask id="mask1_274_795" style="mask-type:luminance" maskUnits="userSpaceOnUse" x="44" y="32" width="122" height="134">
<path d="M44.3721 32.2199H165.002V165.368H44.3721V32.2199Z" fill="white"/>
<path fill-rule="evenodd" clip-rule="evenodd" d="M165.002 32.2199H44.3721V165.368H165.002V32.2199ZM159.774 160.14H49.5994V37.4472H159.774V160.14Z" fill="white"/>
</mask>
<g mask="url(#mask1_274_795)">
<path fill-rule="evenodd" clip-rule="evenodd" d="M46.1371 120.098C47.5806 120.098 48.7507 118.927 48.7507 117.484V106.619C48.7507 105.175 47.5806 104.005 46.1371 104.005C44.6936 104.005 43.5234 105.175 43.5234 106.619V117.484C43.5234 118.927 44.6936 120.098 46.1371 120.098Z" fill="#86714D"/>
<path fill-rule="evenodd" clip-rule="evenodd" d="M73.2316 162.116C74.0176 162.55 74.9714 162.55 75.7574 162.116L104.112 146.466C104.946 146.006 105.463 145.129 105.463 144.178V135.788C105.463 134.345 104.293 133.175 102.849 133.175C101.406 133.175 100.236 134.345 100.236 135.788V142.635L74.4944 156.842L48.7507 142.635V126.605C48.7507 125.162 47.5806 123.991 46.1371 123.991C44.6936 123.991 43.5234 125.162 43.5234 126.605V144.178C43.5234 145.13 44.0409 146.006 44.8742 146.466L73.2316 162.116Z" fill="#86714D"/>
<path fill-rule="evenodd" clip-rule="evenodd" d="M73.2309 124.556C74.0169 124.99 74.9706 124.99 75.7566 124.556L104.113 108.907C104.947 108.447 105.464 107.57 105.464 106.618C105.464 105.667 104.947 104.79 104.113 104.33L75.7566 88.6808C74.9706 88.247 74.0169 88.247 73.2309 88.6808L44.8742 104.33C44.0409 104.79 43.5234 105.667 43.5234 106.618C43.5234 107.57 44.0409 108.447 44.8742 108.907L73.2309 124.556ZM51.5463 106.618L74.4938 93.9543L97.4412 106.618L74.4938 119.283L51.5463 106.618Z" fill="#86714D"/>
<path fill-rule="evenodd" clip-rule="evenodd" d="M74.4925 162.441C75.936 162.441 77.1062 161.271 77.1062 159.828V122.268C77.1062 120.825 75.936 119.655 74.4925 119.655C73.0491 119.655 71.8789 120.825 71.8789 122.268V159.828C71.8789 161.271 73.0491 162.441 74.4925 162.441Z" fill="#86714D"/>
<path fill-rule="evenodd" clip-rule="evenodd" d="M155.564 138.852C156.893 139.415 158.427 138.794 158.99 137.464L165.64 121.758C166.203 120.429 165.581 118.895 164.252 118.332C162.923 117.769 161.389 118.391 160.826 119.72L154.176 135.426C153.613 136.755 154.235 138.289 155.564 138.852Z" fill="#86714D"/>
</g>
<path fill-rule="evenodd" clip-rule="evenodd" d="M115.016 157.216C115.523 157.922 116.347 158.33 117.216 158.305L148.908 157.378C149.93 157.349 150.84 156.726 151.239 155.785L155.496 145.73C156.059 144.401 155.438 142.867 154.108 142.304C152.779 141.741 151.245 142.362 150.683 143.692L147.079 152.202L118.452 153.039L100.431 127.931L114.266 95.255C114.829 93.9258 114.208 92.392 112.878 91.8292C111.549 91.2664 110.015 91.8877 109.452 93.217L95.0457 127.244C94.6904 128.083 94.7978 129.046 95.3292 129.787L115.016 157.216Z" fill="#86714D"/>
<mask id="mask2_274_795" style="mask-type:luminance" maskUnits="userSpaceOnUse" x="44" y="32" width="122" height="134">
<path d="M44.3721 32.2199H165.002V165.368H44.3721V32.2199Z" fill="white"/>
<path fill-rule="evenodd" clip-rule="evenodd" d="M165.002 32.2199H44.3721V165.368H165.002V32.2199ZM159.774 160.14H49.5994V37.4472H159.774V160.14Z" fill="white"/>
</mask>
<g mask="url(#mask2_274_795)">
<path fill-rule="evenodd" clip-rule="evenodd" d="M129.422 123.189C129.928 123.895 130.753 124.303 131.621 124.278L163.314 123.351C164.28 123.323 165.151 122.764 165.58 121.898C166.009 121.032 165.924 120 165.361 119.215L145.674 91.7854C145.167 91.0794 144.343 90.6715 143.474 90.6968L111.781 91.6232C110.815 91.6514 109.944 92.2103 109.515 93.0765C109.087 93.9426 109.171 94.9746 109.734 95.7597L129.422 123.189ZM132.858 119.012L116.847 96.7046L142.237 95.9625L158.248 118.27L132.858 119.012Z" fill="#86714D"/>
</g>
<path fill-rule="evenodd" clip-rule="evenodd" d="M116.117 158.101C117.446 158.663 118.98 158.042 119.543 156.713L133.949 122.686C134.512 121.357 133.891 119.823 132.562 119.26C131.232 118.697 129.699 119.319 129.136 120.648L114.729 154.675C114.166 156.004 114.788 157.538 116.117 158.101Z" fill="#86714D"/>
</svg>
