<svg width="205" height="205" viewBox="0 0 205 205" fill="none" xmlns="http://www.w3.org/2000/svg">
<path fill-rule="evenodd" clip-rule="evenodd" d="M102.073 198.128C155.114 198.128 198.114 155.126 198.114 102.08C198.114 49.0334 155.114 6.03148 102.073 6.03148C49.031 6.03148 6.03148 49.0334 6.03148 102.08C6.03148 155.126 49.031 198.128 102.073 198.128ZM102.073 204.16C158.446 204.16 204.145 158.457 204.145 102.08C204.145 45.7028 158.446 0 102.073 0C45.6995 0 0 45.7028 0 102.08C0 158.457 45.6995 204.16 102.073 204.16Z" fill="#86714D"/>
<mask id="mask0_274_847" style="mask-type:luminance" maskUnits="userSpaceOnUse" x="36" y="37" width="133" height="133">
<path d="M36.1963 37.2855H168.889V169.978H36.1963V37.2855Z" fill="white"/>
</mask>
<g mask="url(#mask0_274_847)">
<path fill-rule="evenodd" clip-rule="evenodd" d="M79.5364 133.371C62.6543 133.371 48.969 119.685 48.969 102.803C48.969 96.9726 50.8878 90.2684 53.9578 83.3403C57.0115 76.4489 61.1091 69.5454 65.2493 63.3736C69.3838 57.2101 73.5242 51.8301 76.6331 47.9894C77.7497 46.6099 78.7315 45.4312 79.53 44.4883C80.9213 46.1418 82.8704 48.5206 85.1209 51.4425C89.6745 57.3547 95.4249 65.4429 100.286 74.216C101.094 75.6728 102.929 76.1994 104.386 75.3921C105.843 74.5848 106.369 72.7494 105.562 71.2926C100.503 62.1628 94.5594 53.8126 89.8993 47.7621C87.5652 44.7316 85.5438 42.2661 84.1025 40.5544C83.3817 39.6983 82.8055 39.0302 82.4071 38.5735C82.208 38.3451 82.0532 38.1696 81.9471 38.0498L81.8249 37.9124L81.7921 37.8757L81.7802 37.8624C81.7798 37.8621 81.7787 37.8607 79.5364 39.8774C77.2979 37.8566 77.2974 37.8571 77.2968 37.8577L77.268 37.8897L77.1904 37.9764C77.1231 38.0519 77.0249 38.1622 76.898 38.3061C76.6441 38.5938 76.275 39.0156 75.8072 39.5594C74.8716 40.6469 73.5403 42.2238 71.945 44.1946C68.757 48.133 64.5016 53.6611 60.2404 60.0135C55.9847 66.3576 51.6866 73.5778 48.4434 80.8968C45.2165 88.1791 42.9375 95.7718 42.9375 102.803C42.9375 123.016 59.3231 139.402 79.5364 139.402C81.2019 139.402 82.5521 138.052 82.5521 136.387C82.5521 134.721 81.2019 133.371 79.5364 133.371ZM79.5364 39.8774L77.2968 37.8577C77.8693 37.2236 78.6849 36.8609 79.5392 36.8616C80.3935 36.8624 81.2089 37.2272 81.7802 37.8624L79.5364 39.8774Z" fill="#86714D"/>
<path fill-rule="evenodd" clip-rule="evenodd" d="M76.6035 127.631C76.6035 151.252 95.7527 170.401 119.374 170.401C139.098 170.401 155.696 157.053 160.643 138.903L157.733 138.11L160.639 138.916L160.643 138.903L160.672 138.794C161.101 137.185 160.145 135.533 158.535 135.103C156.926 134.674 155.274 135.631 154.844 137.24L154.827 137.304L154.824 137.317C150.574 152.91 136.308 164.37 119.374 164.37C99.0837 164.37 82.635 147.921 82.635 127.631C82.635 120.618 84.9396 112.6 88.5881 104.366C92.2204 96.1689 97.0895 87.9676 102.001 80.6457C106.907 73.3322 111.819 66.95 115.506 62.3945C117.039 60.501 118.358 58.9259 119.374 57.7339L119.374 53.1404L117.484 54.8474L117.136 55.1615L119.374 53.1404C117.136 51.1196 117.135 51.1209 117.135 51.1209L117.101 51.1577L117.01 51.2592C116.931 51.3477 116.816 51.4776 116.666 51.6471C116.367 51.986 115.932 52.4835 115.38 53.1254C114.275 54.4091 112.703 56.2714 110.818 58.5997C107.052 63.2529 102.025 69.7833 96.9923 77.2857C91.9651 84.7798 86.8955 93.2978 83.0738 101.923C79.2683 110.511 76.6035 119.417 76.6035 127.631ZM119.374 53.1404L117.135 51.1209C117.706 50.4875 118.521 50.1247 119.374 50.1247C120.227 50.1247 121.041 50.4862 121.613 51.1196L119.374 53.1404ZM119.374 53.1404C121.613 51.1196 121.613 51.1196 121.613 51.1196L121.64 51.1504L121.713 51.2315C121.776 51.3021 121.868 51.4056 121.988 51.5408C122.227 51.8111 122.576 52.2081 123.02 52.722C123.91 53.7495 125.183 55.2449 126.73 57.1285C129.823 60.8939 134.021 66.221 138.44 72.4726C147.217 84.8897 157.109 101.282 160.719 116.44C161.105 118.061 160.104 119.687 158.484 120.073C156.864 120.459 155.238 119.458 154.852 117.838C151.522 103.859 142.208 88.2521 133.515 75.9541C129.199 69.8483 125.094 64.6388 122.07 60.9571C121.031 59.6928 120.121 58.6099 119.374 57.7339" fill="#86714D"/>
<path fill-rule="evenodd" clip-rule="evenodd" d="M127.586 153.377C131.211 152.491 135.063 150.259 138.364 146.958L138.364 146.958C141.664 143.658 143.896 139.805 144.782 136.181C145.659 132.59 145.26 128.931 142.811 126.482C140.362 124.034 136.704 123.634 133.112 124.511C129.488 125.397 125.635 127.629 122.335 130.93C119.034 134.23 116.802 138.082 115.916 141.707C115.039 145.298 115.438 148.957 117.887 151.406C120.336 153.854 123.995 154.254 127.586 153.377ZM126.823 150.252C123.826 150.984 121.511 150.48 120.162 149.131L120.162 149.131C118.812 147.782 118.309 145.467 119.041 142.471C119.765 139.507 121.655 136.158 124.609 133.204C127.563 130.25 130.912 128.36 133.876 127.636C136.872 126.904 139.187 127.408 140.536 128.757L140.536 128.757C141.886 130.106 142.389 132.421 141.657 135.417C140.933 138.381 139.043 141.73 136.089 144.684C133.135 147.638 129.786 149.528 126.823 150.252Z" fill="#86714D"/>
</g>
</svg>
