<svg width="205" height="205" viewBox="0 0 205 205" fill="none" xmlns="http://www.w3.org/2000/svg">
<path fill-rule="evenodd" clip-rule="evenodd" d="M102.073 198.787C155.114 198.787 198.114 155.785 198.114 102.738C198.114 49.6916 155.114 6.68968 102.073 6.68968C49.031 6.68968 6.03148 49.6916 6.03148 102.738C6.03148 155.785 49.031 198.787 102.073 198.787ZM102.073 204.818C158.446 204.818 204.145 159.115 204.145 102.738C204.145 46.361 158.446 0.658203 102.073 0.658203C45.6995 0.658203 0 46.361 0 102.738C0 159.115 45.6995 204.818 102.073 204.818Z" fill="#86714D"/>
<g clip-path="url(#clip0_274_895)">
<path d="M150.498 81.9893L149.531 81.9784C136.055 81.9784 123.93 89.5117 117.764 101.308C113.885 99.5591 109.68 98.5647 105.301 98.5647C98.0671 98.5647 91.2641 101.144 85.8782 105.636C85.7743 100.887 85.1557 96.1576 84.5521 91.9561C84.0351 88.3639 83.539 84.8784 83.5066 81.9761L97.4832 81.9784C99.6969 81.9784 101.781 81.1147 103.347 79.5488L114.404 68.4912C117.565 65.3307 117.587 60.2616 114.57 57.0132C115.623 55.4339 116.125 53.5423 115.932 51.6108C115.687 49.1298 114.356 46.9109 112.28 45.5285L105.568 41.0554C102.326 38.893 98.5496 37.7485 94.6487 37.7485C86.5176 37.7485 78.8749 40.9152 73.1249 46.6652C62.5341 57.2556 54.2005 69.3822 48.3479 82.71C41.2966 98.7671 37.7223 110.613 37.7223 117.915C37.7223 122.1 37.3605 125.499 36.6452 128.02C35.1172 133.406 37.5225 139.151 42.4927 141.99C62.4022 153.367 85.0463 159.381 107.977 159.381H111.975C126.188 159.381 140.231 157.103 153.716 152.608L155.652 151.96C163.564 149.325 168.882 141.947 168.882 133.606V101.354C168.882 90.9438 160.635 82.2565 150.498 81.9893ZM163.353 133.606C163.353 139.564 159.555 144.833 153.899 146.718L151.963 147.365C139.049 151.669 125.594 153.852 111.974 153.852H107.976C86.007 153.852 64.3104 148.092 45.2351 137.191C42.4761 135.614 41.1318 132.463 41.9632 129.529C42.819 126.519 43.251 122.61 43.251 117.915C43.251 111.474 46.7631 100.071 53.4121 84.9344C58.9841 72.2356 66.9318 60.676 77.0336 50.5741C81.7389 45.8688 87.994 43.2772 94.6485 43.2772C97.4534 43.2772 100.169 44.1006 102.502 45.6555L109.213 50.1286C109.907 50.5902 110.349 51.3298 110.43 52.1561C110.514 52.9848 110.222 53.7947 109.637 54.3833L100.806 63.2137C99.8612 64.1586 98.4224 64.3908 97.2292 63.7942C96.3276 63.3432 95.7175 62.5144 95.5555 61.5185C95.3936 60.5225 95.7095 59.5424 96.4222 58.8297L98.9625 56.2894C100.042 55.2095 100.042 53.4601 98.9625 52.3805C97.8825 51.3006 96.1332 51.3006 95.0535 52.3805L92.5133 54.9208C90.5291 56.9049 89.6462 59.6344 90.0971 62.4066C90.548 65.1765 92.2461 67.4846 94.7565 68.74C98.0772 70.3976 102.086 69.7551 104.715 67.1228L110.762 61.0761C111.509 62.1527 111.453 63.6242 110.495 64.5825L99.4375 75.6401C98.9218 76.1559 98.2091 76.45 97.4829 76.45L84.5749 76.448C84.7483 76.1611 84.9147 75.8659 85.1404 75.6401C86.2203 74.5602 86.2203 72.8109 85.1404 71.7312C84.0605 70.6513 82.3111 70.6513 81.2315 71.7312C76.7096 76.2531 77.8085 83.8957 79.0799 92.7447C79.7387 97.3394 80.4216 102.091 80.4216 106.858C80.4216 118.245 71.8045 120.669 71.4373 120.766C69.9686 121.147 69.0779 122.64 69.4477 124.114C69.7608 125.372 70.8866 126.209 72.1256 126.209C72.3469 126.209 72.5737 126.182 72.7979 126.125C76.1079 125.298 81.5324 122.122 84.259 115.606C84.2966 115.556 84.3577 115.537 84.3927 115.483C89.0037 108.351 96.8189 104.094 105.301 104.094C111.904 104.094 118.124 106.653 122.813 111.302C123.899 112.376 125.651 112.371 126.722 111.285C127.797 110.2 127.791 108.451 126.706 107.376C125.427 106.108 124.025 105.015 122.575 104.008C127.771 93.9429 138.074 87.5074 149.531 87.5074L150.349 87.5183C157.519 87.7072 163.353 93.9136 163.353 101.354L163.353 133.606Z" fill="#86714D"/>
</g>
<defs>
<clipPath id="clip0_274_895">
<rect width="132.693" height="132.693" fill="white" transform="translate(36.1895 32.2188)"/>
</clipPath>
</defs>
</svg>
