<svg width="205" height="205" viewBox="0 0 205 205" fill="none" xmlns="http://www.w3.org/2000/svg">
<path fill-rule="evenodd" clip-rule="evenodd" d="M102.219 198.969C155.261 198.969 198.26 155.967 198.26 102.92C198.26 49.8738 155.261 6.87181 102.219 6.87181C49.1775 6.87181 6.17796 49.8738 6.17796 102.92C6.17796 155.967 49.1775 198.969 102.219 198.969ZM102.219 205C158.592 205 204.292 159.297 204.292 102.92C204.292 46.5431 158.592 0.840332 102.219 0.840332C45.846 0.840332 0.146484 46.5431 0.146484 102.92C0.146484 159.297 45.846 205 102.219 205Z" fill="#86714D"/>
<path fill-rule="evenodd" clip-rule="evenodd" d="M98.0803 135.464C98.0803 135.464 98.0803 135.464 98.0803 135.464L90.1574 127.541L119.411 98.2875L127.333 106.21C131.686 110.563 131.686 117.704 127.334 122.056L113.926 135.464C113.926 135.464 113.926 135.464 113.926 135.464C109.573 139.816 102.433 139.816 98.0803 135.464ZM89.7005 127.084C89.7006 127.084 89.7004 127.084 89.7005 127.084ZM93.8154 139.729C100.523 146.437 111.483 146.437 118.191 139.729L131.598 126.321C131.598 126.321 131.598 126.321 131.598 126.321C138.307 119.613 138.306 108.653 131.598 101.945L123.219 93.566C121.12 91.4668 117.701 91.4668 115.602 93.566L85.4359 123.732C83.3373 125.831 83.3356 129.249 85.4359 131.349C85.436 131.349 85.4358 131.349 85.4359 131.349L93.8154 139.729Z" fill="#86714D"/>
<path fill-rule="evenodd" clip-rule="evenodd" d="M90.6333 136.218C91.811 137.396 93.7205 137.396 94.8982 136.218L128.095 103.021C129.272 101.844 129.272 99.9341 128.095 98.7564C126.917 97.5787 125.007 97.5787 123.83 98.7564L90.6333 131.953C89.4556 133.131 89.4556 135.04 90.6333 136.218Z" fill="#86714D"/>
<path fill-rule="evenodd" clip-rule="evenodd" d="M89.7854 127.61C90.8161 126.301 90.591 124.405 89.2826 123.374L42.0616 86.1758L40.1997 88.5393L42.0616 86.1758C40.8019 85.1835 39.7296 83.1568 39.431 80.7972C39.1294 78.4139 39.7092 76.537 40.652 75.5942L38.5195 73.4618L40.652 75.5942L67.4672 48.7792L67.4673 48.7791C68.4098 47.8365 70.2867 47.2567 72.6702 47.5584C75.0299 47.857 77.0567 48.9293 78.0488 50.1888L81.5466 54.6292C82.5772 55.9375 84.4733 56.1627 85.7817 55.132C87.0901 54.1014 87.3152 52.2053 86.2846 50.8969L82.7868 46.4565L80.4178 48.3227L82.7868 46.4565C80.5528 43.6205 76.8811 42.0117 73.4274 41.5746C69.9975 41.1406 65.9459 41.7706 63.2022 44.5144L36.3871 71.3293L36.3871 71.3293C33.6434 74.073 33.0132 78.1244 33.4473 81.5544C33.8843 85.0081 35.4931 88.6797 38.3292 90.9138L85.5503 128.112C86.8586 129.143 88.7548 128.918 89.7854 127.61ZM119.452 97.8735C120.76 96.8429 120.985 94.9467 119.955 93.6384L99.4845 67.6534C98.4539 66.345 96.5577 66.1199 95.2494 67.1506C93.941 68.1813 93.7159 70.0774 94.7466 71.3858L115.217 97.3708C116.247 98.6791 118.143 98.9042 119.452 97.8735Z" fill="#86714D"/>
<path fill-rule="evenodd" clip-rule="evenodd" d="M96.4114 120.729C97.4518 119.429 97.2408 117.531 95.9401 116.49L59.3655 87.2353C59.5488 86.8873 59.8751 86.4138 60.4093 85.8458C61.8024 84.3644 64.1852 82.6909 67.3168 81.3865C73.4146 78.8466 81.7917 77.9273 90.1049 81.9535L108.423 104.143C109.483 105.428 111.384 105.61 112.669 104.549C113.953 103.489 114.135 101.588 113.074 100.304L94.3483 77.6195C94.086 77.3018 93.7614 77.0411 93.3944 76.8537C83.0163 71.5527 72.5124 72.6886 64.9977 75.8187C61.2563 77.3771 58.1085 79.488 56.0154 81.7139C54.9754 82.8199 54.0863 84.0706 53.5841 85.411C53.078 86.7621 52.883 88.4686 53.7149 90.0973C53.9094 90.4783 54.1828 90.8135 54.5169 91.0807L92.1727 121.201C93.4733 122.241 95.3711 122.03 96.4114 120.729ZM59.1777 87.714C59.1778 87.714 59.1783 87.7111 59.1787 87.7058Z" fill="#86714D"/>
<path fill-rule="evenodd" clip-rule="evenodd" d="M124.513 132.64C125.691 131.462 125.691 129.552 124.513 128.375L121.497 125.358C120.319 124.18 118.41 124.18 117.232 125.358C116.054 126.536 116.054 128.445 117.232 129.623L120.249 132.64C121.426 133.817 123.336 133.817 124.513 132.64Z" fill="#86714D"/>
<path fill-rule="evenodd" clip-rule="evenodd" d="M117.81 139.343C118.988 138.165 118.988 136.256 117.81 135.078L114.794 132.061C113.616 130.884 111.707 130.884 110.529 132.061C109.351 133.239 109.351 135.148 110.529 136.326L113.545 139.343C114.723 140.521 116.633 140.521 117.81 139.343Z" fill="#86714D"/>
<path fill-rule="evenodd" clip-rule="evenodd" d="M131.211 125.935C132.389 124.758 132.389 122.848 131.211 121.671L128.194 118.654C127.016 117.476 125.107 117.476 123.929 118.654C122.751 119.832 122.752 121.741 123.929 122.919L126.946 125.936C128.124 127.113 130.033 127.113 131.211 125.935Z" fill="#86714D"/>
<path fill-rule="evenodd" clip-rule="evenodd" d="M155.083 149.797C156.261 148.619 156.261 146.71 155.083 145.532L155.081 145.53C153.903 144.352 151.994 144.352 150.816 145.53C149.638 146.708 149.638 148.617 150.816 149.795L150.818 149.797C151.996 150.975 153.905 150.975 155.083 149.797Z" fill="#86714D"/>
<path fill-rule="evenodd" clip-rule="evenodd" d="M141.673 163.205C142.85 162.027 142.85 160.117 141.673 158.94L141.671 158.938C140.493 157.76 138.583 157.76 137.406 158.938C136.228 160.115 136.228 162.025 137.406 163.203L137.408 163.205C138.586 164.382 140.495 164.382 141.673 163.205Z" fill="#86714D"/>
<path fill-rule="evenodd" clip-rule="evenodd" d="M145.204 139.541C146.27 138.261 146.097 136.36 144.818 135.293L144.815 135.291C143.535 134.224 141.633 134.397 140.567 135.677C139.501 136.956 139.674 138.858 140.953 139.924L140.957 139.927C142.236 140.993 144.138 140.82 145.204 139.541Z" fill="#86714D"/>
<path fill-rule="evenodd" clip-rule="evenodd" d="M143.344 151.472C144.521 150.294 144.521 148.385 143.344 147.207L143.342 147.205C142.164 146.027 140.254 146.027 139.077 147.205C137.899 148.382 137.899 150.292 139.077 151.47L139.079 151.472C140.256 152.649 142.166 152.649 143.344 151.472Z" fill="#86714D"/>
<path fill-rule="evenodd" clip-rule="evenodd" d="M133.472 141.216C134.538 139.937 134.365 138.035 133.085 136.969L133.082 136.966C131.803 135.9 129.901 136.073 128.835 137.352C127.769 138.632 127.941 140.533 129.221 141.599L129.224 141.602C130.504 142.668 132.405 142.496 133.472 141.216Z" fill="#86714D"/>
<path fill-rule="evenodd" clip-rule="evenodd" d="M131.81 152.949C132.876 151.669 132.703 149.768 131.423 148.702L131.42 148.699C130.141 147.633 128.239 147.805 127.173 149.085C126.106 150.364 126.279 152.266 127.559 153.332L127.562 153.335C128.842 154.401 130.743 154.229 131.81 152.949Z" fill="#86714D"/>
<path fill-rule="evenodd" clip-rule="evenodd" d="M87.4922 61.1405C87.4922 62.8061 88.8424 64.1562 90.5079 64.1562H90.5118C92.1773 64.1562 93.5275 62.8061 93.5275 61.1405C93.5275 59.475 92.1773 58.1248 90.5118 58.1248H90.5079C88.8424 58.1248 87.4922 59.475 87.4922 61.1405Z" fill="#86714D"/>
</svg>
